<?xml version="1.0" encoding="UTF-8"?>
<!DOCTYPE svg PUBLIC "-//W3C//DTD SVG 1.1//EN" "http://www.w3.org/Graphics/SVG/1.1/DTD/svg11.dtd">
<svg xmlns="http://www.w3.org/2000/svg" version="1.1" width="180px" height="180px" style="shape-rendering:geometricPrecision; text-rendering:geometricPrecision; image-rendering:optimizeQuality; fill-rule:evenodd; clip-rule:evenodd" xmlns:xlink="http://www.w3.org/1999/xlink">
<g><path style="opacity:1" fill="#353e6e" d="M 92.5,2.5 C 104.833,14.1667 116.833,26.1667 128.5,38.5C 121.018,39.492 113.352,39.8254 105.5,39.5C 105.172,50.6794 105.505,61.6794 106.5,72.5C 117.321,73.4946 128.321,73.8279 139.5,73.5C 139.175,65.6484 139.508,57.9818 140.5,50.5C 153.5,63.1667 166.5,75.8333 179.5,88.5C 179.5,89.1667 179.5,89.8333 179.5,90.5C 177.833,91.8333 176.167,93.1667 174.5,94.5C 173.833,94.5 173.167,94.5 172.5,94.5C 154.167,94.5 135.833,94.5 117.5,94.5C 114.5,94.5 111.5,94.5 108.5,94.5C 106.167,94.5 103.833,94.5 101.5,94.5C 101.5,93.8333 101.5,93.1667 101.5,92.5C 103.833,92.5 106.167,92.5 108.5,92.5C 111.833,92.5 115.167,92.5 118.5,92.5C 118.884,87.6632 118.217,82.9966 116.5,78.5C 115.675,77.6143 114.675,77.281 113.5,77.5C 115.031,76.0755 114.698,75.4088 112.5,75.5C 106.833,75.5 101.167,75.5 95.5,75.5C 95.5,75.1667 95.5,74.8333 95.5,74.5C 98.1667,74.5 100.833,74.5 103.5,74.5C 104.645,70.6888 104.812,66.6888 104,62.5C 99.4812,60.7815 94.9812,59.1148 90.5,57.5C 89.4777,57.8555 88.811,58.5222 88.5,59.5C 88.5,60.1667 88.5,60.8333 88.5,61.5C 88.5,61.8333 88.5,62.1667 88.5,62.5C 87.8333,62.5 87.5,62.8333 87.5,63.5C 85.2625,62.4634 82.9291,62.2967 80.5,63C 82.1667,63.3333 83.8333,63.6667 85.5,64C 81.9492,64.2403 78.7825,65.407 76,67.5C 75.5034,69.8098 75.3367,72.1432 75.5,74.5C 78.3854,74.1936 81.0521,74.5269 83.5,75.5C 76.9779,75.1765 70.6446,75.5098 64.5,76.5C 62.6208,75.6586 60.6208,75.3253 58.5,75.5C 57.2317,81.1749 57.2317,86.8416 58.5,92.5C 60.5,92.5 62.5,92.5 64.5,92.5C 68.5138,92.6655 72.5138,92.4988 76.5,92C 77.474,89.3355 78.1407,89.1688 78.5,91.5C 78.5,92.1667 78.5,92.8333 78.5,93.5C 54.5747,94.4895 30.5747,94.8229 6.5,94.5C 5.83333,94.5 5.16667,94.5 4.5,94.5C 2.83333,93.1667 1.16667,91.8333 -0.5,90.5C -0.5,89.8333 -0.5,89.1667 -0.5,88.5C 1.83333,86.5 4.16667,84.5 6.5,82.5C 17.4131,73.0906 27.9131,63.0906 38,52.5C 38.4643,51.9056 38.631,51.2389 38.5,50.5C 39.492,57.9818 39.8254,65.6484 39.5,73.5C 50.6794,73.8279 61.6794,73.4946 72.5,72.5C 73.4946,61.6794 73.8279,50.6794 73.5,39.5C 65.6484,39.8254 57.9818,39.492 50.5,38.5C 58.5,29.8333 66.8333,21.5 75.5,13.5C 80.2391,10.2692 84.5724,6.43583 88.5,2C 89.8193,1.80503 91.1526,1.97169 92.5,2.5 Z"/></g>
<g><path style="opacity:0.918" fill="#666a8a" d="M 88.5,-0.5 C 89.1667,-0.5 89.8333,-0.5 90.5,-0.5C 91.1667,0.5 91.8333,1.5 92.5,2.5C 91.1526,1.97169 89.8193,1.80503 88.5,2C 84.5724,6.43583 80.2391,10.2692 75.5,13.5C 79.8333,8.83333 84.1667,4.16667 88.5,-0.5 Z"/></g>
<g><path style="opacity:0.215" fill="#b1b4c0" d="M 50.5,38.5 C 57.9818,39.492 65.6484,39.8254 73.5,39.5C 73.8279,50.6794 73.4946,61.6794 72.5,72.5C 72.5,61.8333 72.5,51.1667 72.5,40.5C 64.8045,40.8308 57.1378,40.4975 49.5,39.5C 49.6236,38.8933 49.9569,38.56 50.5,38.5 Z"/></g>
<g><path style="opacity:0.365" fill="#a1a4b5" d="M 140.5,50.5 C 139.508,57.9818 139.175,65.6484 139.5,73.5C 128.321,73.8279 117.321,73.4946 106.5,72.5C 117.167,72.5 127.833,72.5 138.5,72.5C 138.334,64.4931 138.5,56.4931 139,48.5C 139.717,49.0442 140.217,49.7109 140.5,50.5 Z"/></g>
<g><path style="opacity:0.289" fill="#a8abb8" d="M 72.5,72.5 C 61.6794,73.4946 50.6794,73.8279 39.5,73.5C 39.8254,65.6484 39.492,57.9818 38.5,50.5C 38.7828,49.7109 39.2828,49.0442 40,48.5C 40.4997,56.4931 40.6664,64.4931 40.5,72.5C 51.1667,72.5 61.8333,72.5 72.5,72.5 Z"/></g>
<g><path style="opacity:0.576" fill="#979ba6" d="M 128.5,38.5 C 129.043,38.56 129.376,38.8933 129.5,39.5C 121.862,40.4975 114.196,40.8308 106.5,40.5C 106.5,51.1667 106.5,61.8333 106.5,72.5C 105.505,61.6794 105.172,50.6794 105.5,39.5C 113.352,39.8254 121.018,39.492 128.5,38.5 Z"/></g>
<g><path style="opacity:0.922" fill="#636789" d="M 38.5,50.5 C 38.631,51.2389 38.4643,51.9056 38,52.5C 27.9131,63.0906 17.4131,73.0906 6.5,82.5C 16.8333,71.5 27.5,60.8333 38.5,50.5 Z"/></g>
<g><path style="opacity:1" fill="#545b80" d="M 103.5,74.5 C 103.143,69.1228 100.143,66.7895 94.5,67.5C 94.6741,69.861 95.0074,72.1944 95.5,74.5C 95.5,74.8333 95.5,75.1667 95.5,75.5C 93.1625,70.1186 90.8292,64.7853 88.5,59.5C 88.811,58.5222 89.4777,57.8555 90.5,57.5C 94.9812,59.1148 99.4812,60.7815 104,62.5C 104.812,66.6888 104.645,70.6888 103.5,74.5 Z"/></g>
<g><path style="opacity:0.039" fill="#e2dedb" d="M 88.5,59.5 C 90.8292,64.7853 93.1625,70.1186 95.5,75.5C 101.167,75.5 106.833,75.5 112.5,75.5C 112.027,76.9063 111.027,77.573 109.5,77.5C 106.469,80.6866 102.969,83.3532 99,85.5C 98.7526,88.8488 99.586,91.8488 101.5,94.5C 103.833,94.5 106.167,94.5 108.5,94.5C 107.081,95.4511 105.415,95.7845 103.5,95.5C 103.294,98.4951 103.96,101.162 105.5,103.5C 105.5,103.833 105.5,104.167 105.5,104.5C 104.833,104.5 104.167,104.5 103.5,104.5C 102.101,103.11 100.434,102.11 98.5,101.5C 97.378,98.5622 95.378,96.5622 92.5,95.5C 91.8549,94.1882 90.8549,93.1882 89.5,92.5C 84.6148,96.1019 79.6148,99.4352 74.5,102.5C 74.7959,100.597 75.4625,98.9303 76.5,97.5C 76.8333,98.8333 77.1667,98.8333 77.5,97.5C 81.3757,95.6449 85.2091,93.6449 89,91.5C 92.9421,93.3099 96.6088,95.6432 100,98.5C 99.4099,95.9313 98.7432,93.2646 98,90.5C 97.3333,88.5 97.3333,86.5 98,84.5C 109.519,77.5873 108.019,74.754 93.5,76C 92.2447,72.4861 90.9114,68.9861 89.5,65.5C 89.0431,64.7025 88.3764,64.3691 87.5,64.5C 87.5,64.1667 87.5,63.8333 87.5,63.5C 87.5,62.8333 87.8333,62.5 88.5,62.5C 89.6441,63.1826 89.6441,62.8493 88.5,61.5C 88.5,60.8333 88.5,60.1667 88.5,59.5 Z"/></g>
<g><path style="opacity:1" fill="#747a9d" d="M 87.5,63.5 C 87.5,63.8333 87.5,64.1667 87.5,64.5C 87.4142,65.4959 87.7476,66.3292 88.5,67C 86.5512,69.6956 84.8846,72.5289 83.5,75.5C 81.0521,74.5269 78.3854,74.1936 75.5,74.5C 75.3367,72.1432 75.5034,69.8098 76,67.5C 78.7825,65.407 81.9492,64.2403 85.5,64C 83.8333,63.6667 82.1667,63.3333 80.5,63C 82.9291,62.2967 85.2625,62.4634 87.5,63.5 Z"/></g>
<g><path style="opacity:1" fill="#747b9d" d="M 103.5,74.5 C 100.833,74.5 98.1667,74.5 95.5,74.5C 95.0074,72.1944 94.6741,69.861 94.5,67.5C 100.143,66.7895 103.143,69.1228 103.5,74.5 Z"/></g>
<g><path style="opacity:0.165" fill="#e1dee0" d="M 64.5,76.5 C 70.6446,75.5098 76.9779,75.1765 83.5,75.5C 79.0181,76.3255 74.3514,76.8255 69.5,77C 73.2827,79.2746 76.9494,81.7746 80.5,84.5C 81.4212,86.0314 81.0878,87.3647 79.5,88.5C 79.67,87.1779 79.3366,86.0113 78.5,85C 74.1933,81.5168 69.5266,78.6834 64.5,76.5 Z"/></g>
<g><path style="opacity:1" fill="#787fa0" d="M 79.5,88.5 C 79.7373,89.791 79.404,90.791 78.5,91.5C 78.1407,89.1688 77.474,89.3355 76.5,92C 72.5138,92.4988 68.5138,92.6655 64.5,92.5C 63.56,88.5369 63.3933,84.5369 64,80.5C 64.3879,79.572 65.0546,78.9054 66,78.5C 70.8178,81.4832 75.3178,84.8165 79.5,88.5 Z"/></g>
<g><path style="opacity:1" fill="#5a5969" d="M 112.5,75.5 C 114.698,75.4088 115.031,76.0755 113.5,77.5C 111.5,79.1667 109.5,80.8333 107.5,82.5C 105.219,83.6082 103.052,84.9415 101,86.5C 100.82,88.4884 100.986,90.4884 101.5,92.5C 101.5,93.1667 101.5,93.8333 101.5,94.5C 99.586,91.8488 98.7526,88.8488 99,85.5C 102.969,83.3532 106.469,80.6866 109.5,77.5C 111.027,77.573 112.027,76.9063 112.5,75.5 Z"/></g>
<g><path style="opacity:1" fill="#636b91" d="M 113.5,77.5 C 114.675,77.281 115.675,77.6143 116.5,78.5C 118.217,82.9966 118.884,87.6632 118.5,92.5C 115.167,92.5 111.833,92.5 108.5,92.5C 110.081,88.8754 109.748,85.5421 107.5,82.5C 109.5,80.8333 111.5,79.1667 113.5,77.5 Z"/></g>
<g><path style="opacity:1" fill="#535a81" d="M 64.5,76.5 C 69.5266,78.6834 74.1933,81.5168 78.5,85C 79.3366,86.0113 79.67,87.1779 79.5,88.5C 75.3178,84.8165 70.8178,81.4832 66,78.5C 65.0546,78.9054 64.3879,79.572 64,80.5C 63.3933,84.5369 63.56,88.5369 64.5,92.5C 62.5,92.5 60.5,92.5 58.5,92.5C 57.2317,86.8416 57.2317,81.1749 58.5,75.5C 60.6208,75.3253 62.6208,75.6586 64.5,76.5 Z"/></g>
<g><path style="opacity:1" fill="#8e94b0" d="M 107.5,82.5 C 109.748,85.5421 110.081,88.8754 108.5,92.5C 106.167,92.5 103.833,92.5 101.5,92.5C 100.986,90.4884 100.82,88.4884 101,86.5C 103.052,84.9415 105.219,83.6082 107.5,82.5 Z"/></g>
<g><path style="opacity:0.871" fill="#b6ad82" d="M 4.5,94.5 C 5.16667,94.5 5.83333,94.5 6.5,94.5C 6.83333,95.5 7.5,96.1667 8.5,96.5C 18.1667,106.5 27.8333,116.5 37.5,126.5C 37.5,126.833 37.5,127.167 37.5,127.5C 26.1667,116.833 15.1667,105.833 4.5,94.5 Z"/></g>
<g><path style="opacity:1" fill="#d8c949" d="M 78.5,93.5 C 78.6107,94.1174 78.944,94.6174 79.5,95C 78.244,95.4169 77.5774,96.2502 77.5,97.5C 77.1667,97.5 76.8333,97.5 76.5,97.5C 65.5203,96.1677 54.1869,95.5011 42.5,95.5C 30.995,95.5001 19.6617,95.8335 8.5,96.5C 7.5,96.1667 6.83333,95.5 6.5,94.5C 30.5747,94.8229 54.5747,94.4895 78.5,93.5 Z"/></g>
<g><path style="opacity:1" fill="#d7c840" d="M 117.5,95.5 C 117.5,95.1667 117.5,94.8333 117.5,94.5C 135.833,94.5 154.167,94.5 172.5,94.5C 172.167,95.5 171.5,96.1667 170.5,96.5C 153.008,95.5033 135.341,95.1699 117.5,95.5 Z"/></g>
<g><path style="opacity:1" fill="#efe129" d="M 76.5,97.5 C 75.4625,98.9303 74.7959,100.597 74.5,102.5C 73.8333,103.167 73.1667,103.833 72.5,104.5C 61.1667,104.5 49.8333,104.5 38.5,104.5C 38.825,112.019 38.4916,119.352 37.5,126.5C 27.8333,116.5 18.1667,106.5 8.5,96.5C 19.6617,95.8335 30.995,95.5001 42.5,95.5C 54.1869,95.5011 65.5203,96.1677 76.5,97.5 Z"/></g>
<g><path style="opacity:1" fill="#efe22b" d="M 117.5,95.5 C 135.341,95.1699 153.008,95.5033 170.5,96.5C 159.8,106.199 149.8,116.532 140.5,127.5C 139.509,120.687 139.175,113.687 139.5,106.5C 139.5,106.167 139.5,105.833 139.5,105.5C 128.265,104.813 116.932,104.147 105.5,103.5C 109.446,100.853 113.446,98.1861 117.5,95.5 Z"/></g>
<g><path style="opacity:1" fill="#f3ea76" d="M 108.5,94.5 C 111.5,94.5 114.5,94.5 117.5,94.5C 117.5,94.8333 117.5,95.1667 117.5,95.5C 113.446,98.1861 109.446,100.853 105.5,103.5C 103.96,101.162 103.294,98.4951 103.5,95.5C 105.415,95.7845 107.081,95.4511 108.5,94.5 Z"/></g>
<g><path style="opacity:0.929" fill="#757d6f" d="M 92.5,95.5 C 91.1526,94.9717 89.8193,94.805 88.5,95C 85.3098,97.3644 82.3098,99.8644 79.5,102.5C 77.1838,103.806 74.8505,105.139 72.5,106.5C 72.5,106.167 72.5,105.833 72.5,105.5C 72.5,105.167 72.5,104.833 72.5,104.5C 73.1667,103.833 73.8333,103.167 74.5,102.5C 79.6148,99.4352 84.6148,96.1019 89.5,92.5C 90.8549,93.1882 91.8549,94.1882 92.5,95.5 Z"/></g>
<g><path style="opacity:1" fill="#1b9855" d="M 98.5,101.5 C 100.434,102.11 102.101,103.11 103.5,104.5C 104.482,118.421 104.815,132.421 104.5,146.5C 109.5,146.5 114.5,146.5 119.5,146.5C 119.5,147.5 119.5,148.5 119.5,149.5C 110.5,159.167 101.167,168.5 91.5,177.5C 89.7839,177.371 88.1172,177.038 86.5,176.5C 76.1667,166.833 66.1667,156.833 56.5,146.5C 61.8333,145.833 67.1667,145.167 72.5,144.5C 72.5,131.833 72.5,119.167 72.5,106.5C 74.8505,105.139 77.1838,103.806 79.5,102.5C 80.0577,103.79 81.0577,104.623 82.5,105C 86.8713,105.828 91.2047,105.661 95.5,104.5C 96.7701,103.712 97.7701,102.712 98.5,101.5 Z"/></g>
<g><path style="opacity:1" fill="#3daa71" d="M 92.5,95.5 C 95.378,96.5622 97.378,98.5622 98.5,101.5C 97.7701,102.712 96.7701,103.712 95.5,104.5C 91.2047,105.661 86.8713,105.828 82.5,105C 81.0577,104.623 80.0577,103.79 79.5,102.5C 82.3098,99.8644 85.3098,97.3644 88.5,95C 89.8193,94.805 91.1526,94.9717 92.5,95.5 Z"/></g>
<g><path style="opacity:0.901" fill="#a09348" d="M 105.5,103.5 C 116.932,104.147 128.265,104.813 139.5,105.5C 128.167,105.5 116.833,105.5 105.5,105.5C 105.5,105.167 105.5,104.833 105.5,104.5C 105.5,104.167 105.5,103.833 105.5,103.5 Z"/></g>
<g><path style="opacity:0.561" fill="#b4b1a6" d="M 72.5,105.5 C 72.5,105.833 72.5,106.167 72.5,106.5C 61.8333,106.5 51.1667,106.5 40.5,106.5C 40.8308,114.196 40.4975,121.862 39.5,129.5C 38.8933,129.376 38.56,129.043 38.5,128.5C 39.492,121.018 39.8254,113.352 39.5,105.5C 50.5,105.5 61.5,105.5 72.5,105.5 Z"/></g>
<g><path style="opacity:0.862" fill="#8c7f4a" d="M 72.5,104.5 C 72.5,104.833 72.5,105.167 72.5,105.5C 61.5,105.5 50.5,105.5 39.5,105.5C 39.8254,113.352 39.492,121.018 38.5,128.5C 37.8333,128.5 37.5,128.167 37.5,127.5C 37.5,127.167 37.5,126.833 37.5,126.5C 38.4916,119.352 38.825,112.019 38.5,104.5C 49.8333,104.5 61.1667,104.5 72.5,104.5 Z"/></g>
<g><path style="opacity:0.527" fill="#a6aea2" d="M 105.5,105.5 C 116.833,105.5 128.167,105.5 139.5,105.5C 139.5,105.833 139.5,106.167 139.5,106.5C 139.167,106.5 138.833,106.5 138.5,106.5C 127.833,106.5 117.167,106.5 106.5,106.5C 106.5,119.167 106.5,131.833 106.5,144.5C 112.026,144.179 117.36,144.512 122.5,145.5C 116.833,145.5 111.167,145.5 105.5,145.5C 105.5,132.167 105.5,118.833 105.5,105.5 Z"/></g>
<g><path style="opacity:0.954" fill="#338554" d="M 103.5,104.5 C 104.167,104.5 104.833,104.5 105.5,104.5C 105.5,104.833 105.5,105.167 105.5,105.5C 105.5,118.833 105.5,132.167 105.5,145.5C 111.167,145.5 116.833,145.5 122.5,145.5C 122.628,147.129 121.628,148.462 119.5,149.5C 119.5,148.5 119.5,147.5 119.5,146.5C 114.5,146.5 109.5,146.5 104.5,146.5C 104.815,132.421 104.482,118.421 103.5,104.5 Z"/></g>
<g><path style="opacity:0.82" fill="#9b916e" d="M 172.5,94.5 C 173.167,94.5 173.833,94.5 174.5,94.5C 163.5,106.167 152.167,117.5 140.5,128.5C 140.5,128.167 140.5,127.833 140.5,127.5C 149.8,116.532 159.8,106.199 170.5,96.5C 171.5,96.1667 172.167,95.5 172.5,94.5 Z"/></g>
<g><path style="opacity:0.298" fill="#e4e0bc" d="M 138.5,106.5 C 138.833,106.5 139.167,106.5 139.5,106.5C 139.175,113.687 139.509,120.687 140.5,127.5C 140.5,127.833 140.5,128.167 140.5,128.5C 140.44,129.043 140.107,129.376 139.5,129.5C 138.503,121.862 138.169,114.196 138.5,106.5 Z"/></g>
<g><path style="opacity:0.05" fill="#f0f7f3" d="M 72.5,144.5 C 67.1667,145.167 61.8333,145.833 56.5,146.5C 55.9569,146.44 55.6236,146.107 55.5,145.5C 61.1278,144.505 66.7945,144.171 72.5,144.5 Z"/></g>
<g><path style="opacity:0.792" fill="#8ba491" d="M 86.5,176.5 C 88.1172,177.038 89.7839,177.371 91.5,177.5C 91.1667,178.167 90.8333,178.833 90.5,179.5C 89.8333,179.5 89.1667,179.5 88.5,179.5C 87.8333,178.5 87.1667,177.5 86.5,176.5 Z"/></g>
</svg>
